<svg xmlns="http://www.w3.org/2000/svg" viewBox="0 0 1920 1080"><title>Logo</title><g id="Layer_3" data-name="Layer 3"><path d="M1601.44,392.48V221.66l-5.17-5.17H959.49l-3,3V394.69l3,2.95h636.78Z"/><path d="M1601.44,860.12V689.31l-5.17-5.17H959.49l-3,3V862.34l3,2.95h636.78Z"/><path d="M494.74,218.44H323.93l-5.17,5.17V860.39l2.95,3H497l3-3V223.61Z"/><path d="M891.09,215.2l-527,527-2,9.23,112,112h25.06L1147.31,215.2Z"/><path d="M1920,1042.76H444.71C199.6,1042.76.19,843.35.19,598.24V37.73h1475.3c245.1,0,444.51,199.41,444.51,444.52ZM41.22,78.75V598.24c0,222.49,181,403.5,403.49,403.5H1879V482.25c0-222.49-181-403.5-403.49-403.5Z"/></g></svg>